<svg xmlns="http://www.w3.org/2000/svg" width="411.576" height="512" viewBox="0 0 411.576 512">
  <g fill="#2E3440">
    <path d="M286.06 347.911c0-42.854 15.79-80.635 40.599-92.473-28.758-12.408-40.599-58.079-40.599-91.349V71.613c0-1.777-.017-3.49-.042-5.174-24.654-10.447-51.767-16.227-80.229-16.227-28.463 0-55.575 5.78-80.23 16.228a346.204 346.204 0 0 0-.042 5.173v92.476c0 33.27-11.84 78.941-40.6 91.349 24.811 11.838 40.6 49.62 40.6 92.473v91.351c0 2.185.025 4.269.061 6.309 24.649 10.442 51.755 16.218 80.211 16.218s55.56-5.775 80.209-16.218c.036-2.04.062-4.124.062-6.309v-91.351z"/>
    <path d="M73.64 259.947v-11.278c24.247-3.945 40.599-48.491 40.599-94.165v-82.84C46.531 105.356 0 175.239 0 256c0 80.761 46.531 150.645 114.239 184.336v-82.84c0-45.67-7.329-76.122-40.599-97.549zM411.576 256c0-80.762-46.53-150.645-114.238-184.336v82.841c0 45.673 16.353 90.219 40.599 94.165v11.278c-33.27 21.427-40.599 51.879-40.599 97.55v82.84C365.046 406.646 411.576 336.762 411.576 256zM114.239 449.411c0 42.854 9.586 62.589 41.164 62.589h28.194v-11.276H156.53c-20.494 0-30.149-10.344-30.952-55.153a206.174 206.174 0 0 1-11.339-5.233v9.073zM156.53 11.277h27.066V0h-28.194c-31.578 0-41.164 18.61-41.164 61.464v10.2a204.406 204.406 0 0 1 11.32-5.224c.634-42.111 9.284-55.163 30.972-55.163zm98.517 489.447H227.98V512h28.193c31.578 0 41.164-19.735 41.164-62.589v-9.074a203.667 203.667 0 0 1-11.34 5.233c-.801 44.81-10.456 55.154-30.95 55.154zm42.291-439.26C297.338 18.61 287.752 0 256.174 0H227.98v11.277h27.066c21.687 0 30.338 13.051 30.971 55.162a204.362 204.362 0 0 1 11.32 5.225v-10.2z"/>
  </g>
</svg>
