<svg xmlns="http://www.w3.org/2000/svg" width="888" height="350" viewBox="0 0 888 350">
  <path d="M471.07 307.373h1.439l23.426 33.076h.098v-33.076h.959v34.275h-1.439l-23.426-33.074h-.096v33.074h-.961v-34.275zm-19.871-.814c10.273 0 15.795 8.209 15.795 17.953s-5.521 17.953-15.795 17.953c-10.272 0-15.793-8.209-15.793-17.953s5.521-17.953 15.793-17.953zm0 34.947c9.217 0 14.738-7.105 14.834-16.994-.096-9.889-5.617-16.994-14.834-16.994s-14.737 7.105-14.833 16.994c.096 9.888 5.616 16.994 14.833 16.994zm-21.167-24.531c-.24-7.008-4.944-9.457-11.137-9.457-4.849 0-10.753 1.729-10.753 7.873 0 6.193 5.952 6.912 11.809 8.305 6.385 1.633 11.713 2.4 11.713 9.553 0 6.48-6.24 9.217-12.097 9.217-7.776 0-13.537-3.553-13.394-12.193h.96c0 8.209 5.137 11.234 12.434 11.234 5.376 0 11.137-2.4 11.137-8.305 0-6.914-6.721-7.49-12.001-8.785-5.568-1.297-11.521-2.305-11.521-9.025 0-6.816 6.192-8.832 11.713-8.832 6.721 0 11.761 2.736 12.097 10.416h-.96zm-29.28-9.602h.96v25.348c0 5.713-2.496 9.744-9.409 9.744-6.48 0-9.12-4.031-9.12-9.361v-2.064h.96v2.064c0 5.617 2.88 8.402 8.16 8.402 5.473 0 8.449-2.305 8.449-9.506v-24.627z" fill="#88C0D0"/>
  <g fill="#2E3440">
    <path d="M468.451 238.566c0-13.064 4.81-24.563 12.376-28.176-8.771-3.785-12.376-17.693-12.376-27.842v-28.176c0-.539-.004-1.063-.01-1.568-7.518-3.186-15.771-4.945-24.446-4.945-8.674 0-16.93 1.76-24.446 4.945-.006.506-.01 1.029-.01 1.568v28.176c0 10.148-3.604 24.057-12.375 27.842 7.565 3.613 12.375 15.111 12.375 28.176v27.838c0 .66.006 1.291.015 1.91a62.488 62.488 0 0 0 24.441 4.953c8.673 0 16.925-1.77 24.441-4.953.009-.619.015-1.25.015-1.91v-27.838z"/>
    <path d="M403.727 211.764v-3.445c7.387-1.205 12.377-14.775 12.377-28.686v-25.237c-20.632 10.266-34.808 31.545-34.808 56.163s14.176 45.893 34.808 56.17v-25.246c0-13.909-2.241-23.186-12.377-29.719zm102.976-1.205c0-24.617-14.185-45.897-34.816-56.163v25.237c0 13.91 4.988 27.48 12.377 28.686v3.445c-10.137 6.533-12.377 15.811-12.377 29.719v25.246c20.632-10.278 34.816-31.553 34.816-56.17z"/>
    <path d="M416.104 269.492c0 13.063 2.916 19.066 12.534 19.066h8.592v-3.445h-8.243c-6.245 0-9.191-3.137-9.434-16.799a69.877 69.877 0 0 1-3.45-1.586v2.764zm12.883-133.499h8.243v-3.435h-8.592c-9.618 0-12.534 5.666-12.534 18.729v3.108a55.272 55.272 0 0 1 3.445-1.592c.198-12.835 2.827-16.81 9.438-16.81zm30.016 149.12h-8.243v3.445h8.592c9.619 0 12.535-6.004 12.535-19.066v-2.764a70.304 70.304 0 0 1-3.45 1.586c-.244 13.663-3.189 16.799-9.434 16.799zm12.884-133.825c0-13.063-2.916-18.729-12.535-18.729h-8.592v3.435h8.243c6.611 0 9.24 3.976 9.438 16.812a54.658 54.658 0 0 1 3.445 1.592v-3.11z"/>
  </g>
  <path fill="#2E3440" stroke="#2E3440" stroke-width="8" stroke-miterlimit="10" d="M328.755 7.535h85.023v85.023h-85.023z"/>
  <path d="M390.616 25.311h10.414v52.075h-10.414zm-12.277 5.208h10.414v52.075h-10.414zm-12.278-9.112h10.416V73.48h-10.416zm-12.281-3.905h10.417v52.072H353.78zm-12.277 7.808h10.415v52.076h-10.415z" fill="#D8DEE9"/>
  <path d="M546.451 59.595c0 .891-.734 1.592-1.594 1.592H533.73a1.578 1.578 0 0 1-1.594-1.592V40.531c0-.893.701-1.595 1.594-1.595h11.127c.859 0 1.594.702 1.594 1.595s-.734 1.594-1.594 1.594h-9.531v6.407h7.268a1.6 1.6 0 0 1 1.594 1.596c0 .892-.732 1.593-1.594 1.593h-7.268V58h9.531a1.6 1.6 0 0 1 1.594 1.595zm-20.885-8.066l4.465 7.268a1.615 1.615 0 0 1-.543 2.201c-.254.16-.541.223-.828.223-.541 0-1.053-.287-1.371-.766l-5.291-8.671h-3.252v7.874c0 .893-.734 1.563-1.594 1.563-.893 0-1.596-.67-1.596-1.563V40.594c0-.86.734-1.594 1.627-1.594h6.76c3.219 0 6.311 2.741 6.344 6.312 0 2.839-1.914 5.196-4.721 6.217zm1.563-6.185c-.031-1.785-1.498-3.156-3.314-3.156h-5.068v6.408h5.068a3.298 3.298 0 0 0 3.314-3.252zm-35.453 4.623c0-5.994 4.879-11.031 11.031-11.031 6.154 0 11.031 5.037 11.031 11.031 0 6.152-4.877 11.22-11.031 11.22-6.152 0-11.031-5.067-11.031-11.22zm3.092 0c0 4.526 3.572 8.129 7.939 8.129s7.971-3.603 7.971-8.129c0-4.368-3.604-7.938-7.971-7.938s-7.939 3.57-7.939 7.938zm-25.377.16c0-6.281 5.133-11.223 11.254-11.223 4.018 0 7.619 2.072 9.531 5.515.574.957.191 1.944-.574 2.295-.732.383-1.721.192-2.104-.573-1.498-2.487-4.018-3.984-6.854-3.984-4.367 0-8.002 3.602-8.002 7.971 0 4.397 3.635 7.841 8.002 7.841a7.966 7.966 0 0 0 6.662-3.634c.383-.766 1.563-.957 2.105-.383.764.383 1.146 1.371.572 2.104-2.104 3.252-5.514 5.164-9.34 5.164-6.12 0-11.252-4.972-11.252-11.093zm-.545 9.468c0 .891-.732 1.592-1.592 1.592h-11.127a1.578 1.578 0 0 1-1.594-1.592V40.531c0-.893.701-1.595 1.594-1.595h11.127c.859 0 1.592.702 1.592 1.595s-.732 1.594-1.592 1.594h-9.533v6.407h7.268c.861 0 1.596.702 1.596 1.596a1.6 1.6 0 0 1-1.596 1.593h-7.268V58h9.533a1.6 1.6 0 0 1 1.592 1.595zm-37.269-9.468c0-6.281 5.133-11.223 11.254-11.223 4.017 0 7.619 2.072 9.531 5.515.574.957.191 1.944-.572 2.295-.734.383-1.723.192-2.105-.573-1.498-2.487-4.016-3.984-6.853-3.984-4.367 0-8.003 3.602-8.003 7.971 0 4.397 3.636 7.841 8.003 7.841a7.966 7.966 0 0 0 6.662-3.634c.383-.766 1.563-.957 2.105-.383.764.383 1.146 1.371.574 2.104-2.105 3.252-5.516 5.164-9.341 5.164-6.123 0-11.255-4.972-11.255-11.093zm-5.006 9.531V40.404c0-.862.701-1.563 1.594-1.563.861 0 1.563.7 1.563 1.563v19.254c0 .893-.701 1.594-1.563 1.594a1.58 1.58 0 0 1-1.594-1.594z" fill="#2E3440"/>
  <path fill="none" stroke="#2E3440" stroke-width="8" stroke-miterlimit="10" d="M413.778 7.535h145.466v85.023H413.778"/>
</svg>
