<svg xmlns="http://www.w3.org/2000/svg" width="421.602" height="513" viewBox="0 0 421.602 513">
  <g fill-rule="evenodd" clip-rule="evenodd" fill="#2E3440">
    <path d="M340.797 134.02c-.017 37.944.532 75.897-.154 113.831-.866 47.799-28.563 84.967-71.657 97.911-41.94 12.594-85.816-2.301-111.466-37.842-9.533-13.209-15.571-27.928-17.594-44.023-.669-5.32-5.898-14.19 5.63-14.582 8.007-.272 18.027-4.445 19.69 10.57 2.835 25.604 17.308 44.209 39.737 56.43 17.542 9.557 23.053 7.076 28.399-12.107 2.424-8.711 2.81-17.688 2.802-26.715-.065-65.905.15-131.809-.248-197.709-.058-9.914 2.951-16.693 10.468-23.072 18.639-15.824 37.066-31.971 54.697-48.904 10.874-10.443 23.379-6.84 35.31-6.137 6.655.393 4.269 8.005 4.293 12.525.191 39.939.11 79.882.093 119.824zM315.146 29.871c-15.655 13.979-28.07 26.15-41.66 36.832-9.639 7.578-12.33 16.11-12.529 28.107-1.231 75.531 4.436 151.211-3.504 226.456 29.737-4.191 56.71-32.383 57.299-65.999 1.285-73.794.394-147.626.394-225.396z"/>
    <path d="M60.869 286.342c-11.413 14.334-20.849 26.469-30.619 38.322-4.401 5.342-1.823 10.244-.256 15.447 24.477 81.402 96.278 138.578 183.019 145.668 5.472.443 10.992 1.203 16.439.898 12.167-.67 9.879 7.725 10.411 15.049.639 8.74-2.988 11.094-11.354 10.74C120.062 507.891 30.075 444.848 1.38 333.209c-1.736-6.752-1.089-12.277 3.606-17.992 15.84-19.293 31.66-38.641 46.514-58.686 7.7-10.391 17.82-8.389 27.05-6.783 8.736 1.523 4.959 10.799 5.494 16.584 7.435 80.539 80.166 142.49 163.721 139.115 80.243-3.24 147.632-72.016 148.177-152.266.532-79.397.341-158.801-.126-238.195C395.754 3.849 398.662.574 409.962.525c12.013-.053 11.131 6.617 11.122 14.385-.044 79.898.049 159.797-.126 239.694-.02 8.949-.687 18.029-2.337 26.806-15.924 84.621-85.849 145.652-171.157 149.713-82.616 3.936-157.438-49.543-182.171-130.213-1.144-3.734-2.272-7.474-4.424-14.568z"/>
  </g>
</svg>
